<svg xmlns="http://www.w3.org/2000/svg" width="1490.995" height="722.996" viewBox="0 0 1490.995 722.996">
  <path d="M398.613,1238.84q-45.516-13.5-76.5-30.5l-44,124a366.593,366.593,0,0,0,34.5,17,373.169,373.169,0,0,0,49,17,536.731,536.731,0,0,0,65.5,13.5q36.984,5.49,83,5.5,136.992,0,205-53.5,67.992-53.475,68-150.5,0-49.98-13-85a165.236,165.236,0,0,0-39.5-61q-26.508-25.98-66.5-45.5-40.008-19.5-94-39.5-26.016-9-47.5-17.5a223.149,223.149,0,0,1-38-19q-16.5-10.5-25.5-23.5-9-12.984-9-32,0-31.992,24.5-47.5,24.492-15.492,80.5-15.5,49.992,0,85.5,11.5a427.669,427.669,0,0,1,64.5,26.5l45-123q-33-18-84-33t-121-15q-59.016,0-106,14.5-47.016,14.508-80,41.5a184.759,184.759,0,0,0-51,65.5q-18,38.508-18,86.5t17,81.5a186.152,186.152,0,0,0,44,57,249.753,249.753,0,0,0,61,39q33.984,15.525,68,27.5,78,26.025,110,48.5,31.992,22.5,32,56.5a80.218,80.218,0,0,1-5,29q-5.016,13.02-18,22.5-13.008,9.525-34.5,15-21.516,5.52-54.5,5.5Q444.113,1252.34,398.613,1238.84Zm745.907,132.5q51.135-99.975,103.8-234,52.635-133.98,99.79-292H1194.02q-10.035,39-23.59,84.5-13.56,45.516-28.11,92-14.565,46.5-29.61,90.5-15.045,44.025-28.1,80-14.055-36-28.64-80-14.58-43.98-29.12-90.5-14.58-46.494-28.128-92-13.571-45.492-23.609-84.5h-158q47.155,158.016,99.859,292,52.688,134.025,103.888,234h123.66Zm624.59-517a161.353,161.353,0,0,0-29-8.5q-17.01-3.492-34-6-17.01-2.484-34-4-17.01-1.5-29-1.5-67,0-121.5,12.5-54.51,12.516-94.5,26.5v498h149v-402q9.99-3,29.5-5.5a271.1,271.1,0,0,1,33.5-2.5,291.269,291.269,0,0,1,58,5.5q27,5.508,47,10.5Z" transform="translate(-278.125 -662.344)"/>
</svg>
