<svg width="167" height="81" viewBox="0 0 167 81" xmlns="http://www.w3.org/2000/svg"><path d="M25.984 66.08c2.464 0 4.5-.205 6.104-.616 1.605-.41 2.893-.97 3.864-1.68.97-.71 1.643-1.55 2.016-2.52s.56-2.053.56-3.248c0-2.54-1.195-4.648-3.584-6.328-2.39-1.68-6.496-3.49-12.32-5.432-2.54-.896-5.077-1.923-7.616-3.08-2.54-1.157-4.816-2.613-6.832-4.368-2.016-1.755-3.66-3.883-4.928-6.384-1.27-2.5-1.904-5.544-1.904-9.128 0-3.584.672-6.813 2.016-9.688 1.344-2.875 3.248-5.32 5.712-7.336 2.464-2.016 5.45-3.565 8.96-4.648C21.542.54 25.5 0 29.904 0c5.227 0 9.744.56 13.552 1.68 3.808 1.12 6.944 2.352 9.408 3.696l-5.04 13.776c-2.165-1.12-4.573-2.11-7.224-2.968-2.65-.86-5.843-1.288-9.576-1.288-4.18 0-7.187.58-9.016 1.736-1.83 1.157-2.744 2.93-2.744 5.32 0 1.42.336 2.613 1.008 3.584.672.97 1.624 1.848 2.856 2.632 1.232.784 2.65 1.493 4.256 2.128 1.605.635 3.38 1.288 5.32 1.96 4.032 1.493 7.54 2.968 10.528 4.424 2.987 1.456 5.47 3.155 7.448 5.096 1.98 1.94 3.453 4.22 4.424 6.832.97 2.613 1.456 5.787 1.456 9.52 0 7.243-2.54 12.86-7.616 16.856-5.077 3.995-12.73 5.992-22.96 5.992-3.435 0-6.533-.205-9.296-.616-2.763-.41-5.208-.915-7.336-1.512s-3.957-1.232-5.488-1.904c-1.53-.672-2.82-1.307-3.864-1.904l4.928-13.888c2.315 1.27 5.17 2.408 8.568 3.416 3.397 1.008 7.56 1.512 12.488 1.512zm57.12 13.328C79.296 71.94 75.432 63.205 71.512 53.2c-3.92-10.005-7.635-20.907-11.144-32.704h17.696c.747 2.912 1.624 6.067 2.632 9.464 1.008 3.397 2.053 6.832 3.136 10.304 1.083 3.472 2.165 6.85 3.248 10.136 1.083 3.285 2.147 6.272 3.192 8.96.97-2.688 2.016-5.675 3.136-8.96 1.12-3.285 2.22-6.664 3.304-10.136 1.083-3.472 2.128-6.907 3.136-10.304 1.008-3.397 1.885-6.552 2.632-9.464h17.248c-3.51 11.797-7.224 22.7-11.144 32.704-3.92 10.005-7.784 18.74-11.592 26.208H83.104zm81.088-44.128c-1.493-.373-3.248-.765-5.264-1.176-2.016-.41-4.18-.616-6.496-.616-1.045 0-2.296.093-3.752.28-1.456.187-2.557.392-3.304.616v45.024h-16.688V23.632c2.987-1.045 6.515-2.035 10.584-2.968 4.07-.933 8.605-1.4 13.608-1.4.896 0 1.98.056 3.248.168 1.27.112 2.54.26 3.808.448 1.27.187 2.54.41 3.808.672 1.27.26 2.352.58 3.248.952l-2.8 13.776z" fill="#3F3F3F" fill-rule="evenodd"/></svg>